<svg width="51" height="51" viewBox="0 0 51 51" fill="none" xmlns="http://www.w3.org/2000/svg">
<path d="M45.3954 16.0536L20.3954 41.0536C20.2503 41.1989 20.078 41.3141 19.8883 41.3928C19.6986 41.4714 19.4953 41.5119 19.2899 41.5119C19.0846 41.5119 18.8813 41.4714 18.6916 41.3928C18.5019 41.3141 18.3296 41.1989 18.1845 41.0536L7.24696 30.1161C6.95377 29.8229 6.78906 29.4253 6.78906 29.0106C6.78906 28.596 6.95377 28.1984 7.24696 27.9052C7.54015 27.612 7.9378 27.4473 8.35243 27.4473C8.76706 27.4473 9.16471 27.612 9.4579 27.9052L19.2899 37.7392L43.1845 13.8427C43.4777 13.5495 43.8753 13.3848 44.2899 13.3848C44.7046 13.3848 45.1022 13.5495 45.3954 13.8427C45.6886 14.1359 45.8533 14.5335 45.8533 14.9481C45.8533 15.3628 45.6886 15.7604 45.3954 16.0536Z" fill="#0B6B38"/>
</svg>
