<svg id="instagram" xmlns="http://www.w3.org/2000/svg" width="27.3" height="27.3" viewBox="0 0 27.3 27.3">
  <path id="Path_1020" data-name="Path 1020" d="M212.225,209.613A2.613,2.613,0,1,1,209.613,207,2.613,2.613,0,0,1,212.225,209.613Zm0,0" transform="translate(-195.963 -195.963)" fill="#D9A630"/>
  <path id="Path_1021" data-name="Path 1021" d="M148.021,137.292a2.6,2.6,0,0,0-1.488-1.488,4.336,4.336,0,0,0-1.455-.27c-.827-.038-1.075-.046-3.167-.046s-2.341.008-3.167.046a4.339,4.339,0,0,0-1.455.27,2.6,2.6,0,0,0-1.488,1.488,4.338,4.338,0,0,0-.27,1.455c-.038.826-.046,1.074-.046,3.167s.008,2.341.046,3.167a4.337,4.337,0,0,0,.27,1.455,2.6,2.6,0,0,0,1.488,1.488,4.331,4.331,0,0,0,1.455.27c.826.038,1.074.046,3.167.046s2.341-.008,3.167-.046a4.332,4.332,0,0,0,1.455-.27,2.6,2.6,0,0,0,1.488-1.488,4.341,4.341,0,0,0,.27-1.455c.038-.827.046-1.075.046-3.167s-.008-2.341-.046-3.167A4.331,4.331,0,0,0,148.021,137.292Zm-6.11,8.647a4.025,4.025,0,1,1,4.025-4.025A4.025,4.025,0,0,1,141.911,145.939Zm4.184-7.268a.941.941,0,1,1,.941-.941A.941.941,0,0,1,146.094,138.671Zm0,0" transform="translate(-128.261 -128.264)" fill="#D9A630"/>
  <path id="Path_1022" data-name="Path 1022" d="M13.65,0A13.65,13.65,0,1,0,27.3,13.65,13.651,13.651,0,0,0,13.65,0ZM21.44,16.881a5.75,5.75,0,0,1-.364,1.9,4.008,4.008,0,0,1-2.292,2.292,5.755,5.755,0,0,1-1.9.364c-.836.038-1.1.047-3.231.047s-2.4-.009-3.232-.047a5.755,5.755,0,0,1-1.9-.364,4.008,4.008,0,0,1-2.292-2.292,5.749,5.749,0,0,1-.364-1.9c-.039-.836-.047-1.1-.047-3.232s.009-2.4.047-3.231a5.751,5.751,0,0,1,.364-1.9A4.01,4.01,0,0,1,8.516,6.223a5.756,5.756,0,0,1,1.9-.364c.836-.038,1.1-.047,3.231-.047s2.4.009,3.231.047a5.757,5.757,0,0,1,1.9.364,4.009,4.009,0,0,1,2.292,2.293,5.75,5.75,0,0,1,.364,1.9c.038.836.047,1.1.047,3.231S21.479,16.045,21.44,16.881Zm0,0" fill="#D9A630"/>
</svg>
