<svg id="phone-call" xmlns="http://www.w3.org/2000/svg" width="27.3" height="27.3" viewBox="0 0 27.3 27.3">
  <g id="Group_282" data-name="Group 282" transform="translate(0 0)">
    <path id="Path_427" data-name="Path 427" d="M23.3,4a13.65,13.65,0,1,0,4,9.65A13.65,13.65,0,0,0,23.3,4ZM20.672,19.014l0,0v0l-.692.687a3.64,3.64,0,0,1-3.435.983,12.1,12.1,0,0,1-3.513-1.574,16.229,16.229,0,0,1-2.771-2.234,16.354,16.354,0,0,1-2.07-2.512,12.738,12.738,0,0,1-1.556-3.149A3.64,3.64,0,0,1,7.543,7.5l.81-.81a.578.578,0,0,1,.817,0l0,0,2.557,2.557a.578.578,0,0,1,0,.817l0,0-1.5,1.5a1.224,1.224,0,0,0-.127,1.592,17.56,17.56,0,0,0,1.8,2.1,17.452,17.452,0,0,0,2.366,1.988,1.233,1.233,0,0,0,1.574-.136l1.451-1.474a.578.578,0,0,1,.817,0l0,0L20.67,18.2A.578.578,0,0,1,20.672,19.014Z" transform="translate(0 0)" fill="#D9A630"/>
  </g>
</svg>
