<svg width="71" height="71" viewBox="0 0 71 71" fill="none" xmlns="http://www.w3.org/2000/svg">
<path d="M61.332 35.5527C61.332 36.1329 61.1016 36.6893 60.6913 37.0995C60.2811 37.5098 59.7247 37.7402 59.1445 37.7402H37.2695V59.6152C37.2695 60.1954 37.0391 60.7518 36.6288 61.162C36.2186 61.5723 35.6622 61.8027 35.082 61.8027C34.5019 61.8027 33.9455 61.5723 33.5352 61.162C33.125 60.7518 32.8945 60.1954 32.8945 59.6152V37.7402H11.0195C10.4394 37.7402 9.88297 37.5098 9.47274 37.0995C9.0625 36.6893 8.83203 36.1329 8.83203 35.5527C8.83203 34.9726 9.0625 34.4162 9.47274 34.0059C9.88297 33.5957 10.4394 33.3652 11.0195 33.3652H32.8945V11.4902C32.8945 10.9101 33.125 10.3537 33.5352 9.94344C33.9455 9.5332 34.5019 9.30273 35.082 9.30273C35.6622 9.30273 36.2186 9.5332 36.6288 9.94344C37.0391 10.3537 37.2695 10.9101 37.2695 11.4902V33.3652H59.1445C59.7247 33.3652 60.2811 33.5957 60.6913 34.0059C61.1016 34.4162 61.332 34.9726 61.332 35.5527Z" fill="#DBAF2C"/>
</svg>
