<svg width="50" height="50" viewBox="0 0 50 50" fill="none" xmlns="http://www.w3.org/2000/svg">
<circle cx="25" cy="25" r="25" fill="#DCAF30"/>
<path d="M41.0813 42.1253C38.7016 38.0113 35.0344 35.0613 30.7547 33.6628C32.8717 32.4026 34.5164 30.4823 35.4363 28.1969C36.3563 25.9115 36.5005 23.3872 35.847 21.0118C35.1935 18.6365 33.7783 16.5413 31.8188 15.048C29.8592 13.5548 27.4637 12.7461 25.0001 12.7461C22.5364 12.7461 20.1409 13.5548 18.1813 15.048C16.2218 16.5413 14.8066 18.6365 14.1531 21.0118C13.4996 23.3872 13.6439 25.9115 14.5638 28.1969C15.4837 30.4823 17.1284 32.4026 19.2454 33.6628C14.9657 35.0597 11.2985 38.0097 8.91881 42.1253C8.83154 42.2676 8.77366 42.426 8.74857 42.591C8.72349 42.756 8.73171 42.9244 8.77275 43.0862C8.81379 43.248 8.88683 43.3999 8.98754 43.5331C9.08826 43.6662 9.21462 43.7778 9.35916 43.8613C9.5037 43.9447 9.6635 43.9984 9.82913 44.0192C9.99476 44.0399 10.1629 44.0272 10.3235 43.982C10.4842 43.9367 10.6342 43.8597 10.7646 43.7555C10.895 43.6513 11.0032 43.522 11.0829 43.3753C14.0266 38.2878 19.2297 35.2503 25.0001 35.2503C30.7704 35.2503 35.9735 38.2878 38.9172 43.3753C38.9969 43.522 39.1051 43.6513 39.2355 43.7555C39.366 43.8597 39.5159 43.9367 39.6766 43.982C39.8372 44.0272 40.0054 44.0399 40.171 44.0192C40.3366 43.9984 40.4964 43.9447 40.641 43.8613C40.7855 43.7778 40.9119 43.6662 41.0126 43.5331C41.1133 43.3999 41.1863 43.248 41.2274 43.0862C41.2684 42.9244 41.2766 42.756 41.2515 42.591C41.2265 42.426 41.1686 42.2676 41.0813 42.1253ZM16.2501 24.0003C16.2501 22.2698 16.7632 20.578 17.7247 19.1391C18.6862 17.7002 20.0527 16.5787 21.6516 15.9164C23.2504 15.2541 25.0098 15.0809 26.7071 15.4185C28.4044 15.7561 29.9635 16.5895 31.1872 17.8132C32.4109 19.0369 33.2443 20.596 33.5819 22.2933C33.9195 23.9906 33.7463 25.75 33.084 27.3488C32.4217 28.9477 31.3002 30.3142 29.8613 31.2757C28.4224 32.2372 26.7306 32.7503 25.0001 32.7503C22.6802 32.7479 20.456 31.8252 18.8156 30.1848C17.1752 28.5444 16.2525 26.3202 16.2501 24.0003Z" fill="white"/>
</svg>
